<svg xmlns="http://www.w3.org/2000/svg" width="13" height="16" viewBox="0 0 13 16" fill="none">
<path d="M1.72829 4.7287H11.2399C11.3139 4.72876 11.3852 4.75502 11.44 4.80237C11.4947 4.84972 11.529 4.91475 11.5361 4.9848L12.4986 14.6905C12.5026 14.7297 12.4979 14.7693 12.4848 14.8067C12.4717 14.8441 12.4506 14.8785 12.4227 14.9077C12.3948 14.9368 12.3608 14.9601 12.3228 14.976C12.2849 14.9919 12.2439 15.0001 12.2025 15H0.797469C0.756058 15 0.715104 14.9917 0.677238 14.9758C0.639373 14.9598 0.605427 14.9365 0.577555 14.9074C0.549684 14.8783 0.528497 14.844 0.515367 14.8066C0.502236 14.7693 0.497441 14.7297 0.501288 14.6905L1.43212 4.9848C1.4392 4.91475 1.47345 4.84972 1.5282 4.80237C1.58295 4.75502 1.65428 4.72876 1.72829 4.7287V4.7287Z" stroke="#212121" stroke-linecap="round" stroke-linejoin="round"/>
<path d="M4.16699 6.34185V3.20514C4.16699 0.264953 8.83412 0.264953 8.83412 3.20514V6.34185" stroke="#212121" stroke-linecap="round" stroke-linejoin="round"/>
</svg>